<?xml version="1.0" standalone="no"?>
<!DOCTYPE svg PUBLIC "-//W3C//DTD SVG 20010904//EN"
 "http://www.w3.org/TR/2001/REC-SVG-20010904/DTD/svg10.dtd">
<svg version="1.0" xmlns="http://www.w3.org/2000/svg"
 width="1280.000000pt" height="770.000000pt" viewBox="0 0 1280.000000 770.000000"
 preserveAspectRatio="xMidYMid meet">
<g transform="translate(0.000000,770.000000) scale(0.100000,-0.100000)"
fill="#000000" stroke="none">
<path d="M4139 7677 c-22 -15 -39 -38 -49 -65 -12 -36 -18 -42 -35 -37 -47 16
-84 16 -114 1 -17 -9 -31 -21 -31 -26 0 -6 -7 -10 -15 -10 -10 0 -15 10 -15
30 0 19 -11 42 -29 62 -25 28 -36 33 -76 33 -40 0 -51 -5 -76 -33 -81 -91 22
-214 131 -157 17 9 30 20 30 25 0 6 7 10 15 10 10 0 15 -10 15 -30 0 -19 11
-42 29 -62 25 -28 36 -33 74 -33 53 0 92 30 106 79 6 23 13 30 27 28 10 -2 33
-6 50 -9 36 -6 88 18 104 46 13 25 13 87 0 111 -10 20 -74 60 -94 60 -7 0 -28
-10 -47 -23z"/>
<path d="M5104 7573 c-12 -2 -34 -17 -49 -33 -63 -66 -16 -173 76 -173 90 0
135 111 71 174 -28 28 -62 39 -98 32z"/>
<path d="M8375 7508 c-75 -41 -72 -156 5 -188 71 -29 145 22 145 101 0 73 -86
123 -150 87z"/>
<path d="M4854 7490 c-66 -27 -85 -120 -35 -171 43 -43 101 -41 147 5 51 51
43 119 -18 156 -35 21 -60 24 -94 10z"/>
<path d="M3435 7481 c-34 -15 -56 -47 -62 -90 -5 -36 -2 -44 30 -76 25 -25 44
-35 66 -35 66 0 111 44 111 109 0 63 -86 118 -145 92z"/>
<path d="M9889 7411 c-79 -79 11 -210 114 -167 108 45 76 195 -41 196 -35 0
-49 -6 -73 -29z"/>
<path d="M4368 7404 c-15 -8 -32 -23 -38 -34 -15 -28 -12 -87 5 -114 33 -50
121 -59 160 -16 25 27 33 25 49 -14 18 -44 51 -66 98 -66 38 0 38 0 38 -40 0
-47 22 -95 49 -110 37 -19 100 -12 126 14 69 69 29 169 -74 183 -41 6 -43 7
-37 35 12 62 -43 128 -107 128 -13 0 -41 -12 -62 -26 -38 -25 -54 -22 -55 13
0 6 -14 23 -31 37 -35 30 -79 33 -121 10z"/>
<path d="M3669 7341 c-81 -82 18 -219 121 -166 38 20 64 74 55 116 -17 76
-120 105 -176 50z"/>
<path d="M5024 7266 c-60 -27 -80 -86 -49 -146 19 -37 43 -50 95 -50 46 0 85
30 96 75 21 82 -65 155 -142 121z"/>
<path d="M5283 7248 c-98 -26 -97 -165 1 -198 64 -21 136 33 136 102 0 19 -33
88 -42 88 -2 0 -17 4 -33 8 -17 5 -44 5 -62 0z m67 -128 c0 -5 -4 -10 -9 -10
-6 0 -13 5 -16 10 -3 6 1 10 9 10 9 0 16 -4 16 -10z"/>
<path d="M4181 7224 c-54 -45 -49 -127 11 -168 45 -32 123 -11 146 39 49 106
-69 203 -157 129z"/>
<path d="M2543 7228 c-98 -26 -97 -165 1 -198 64 -21 136 33 136 102 0 19 -33
88 -42 88 -2 0 -17 4 -33 8 -17 5 -44 5 -62 0z"/>
<path d="M3506 7165 c-42 -22 -55 -44 -56 -93 0 -90 99 -135 168 -77 58 48 46
142 -22 170 -44 19 -54 19 -90 0z"/>
<path d="M8898 7144 c-70 -37 -73 -123 -8 -175 l39 -32 -28 -26 c-35 -32 -45
-62 -37 -106 7 -36 43 -71 83 -81 54 -14 123 43 123 100 0 38 -32 92 -59 101
-28 9 -26 18 9 53 24 25 30 39 30 74 -1 46 -10 64 -50 91 -30 21 -66 21 -102
1z"/>
<path d="M4434 7111 c-88 -54 -47 -191 56 -191 102 0 143 138 57 190 -40 25
-73 25 -113 1z"/>
<path d="M11481 7106 c-31 -17 -50 -53 -51 -94 0 -26 9 -43 35 -69 32 -32 40
-35 77 -30 60 8 93 45 93 103 0 39 -5 50 -33 75 -36 32 -80 38 -121 15z"/>
<path d="M11714 7071 c-43 -26 -60 -77 -41 -123 18 -44 38 -59 86 -65 109 -15
161 131 67 188 -17 10 -42 19 -56 19 -14 0 -39 -9 -56 -19z"/>
<path d="M3949 7051 c-64 -64 -18 -181 71 -181 37 0 81 30 96 67 43 103 -88
193 -167 114z"/>
<path d="M11978 7064 c-35 -19 -48 -43 -48 -91 1 -109 145 -140 196 -42 47 91
-56 183 -148 133z"/>
<path d="M6284 7031 c-90 -55 -47 -191 59 -191 55 0 97 43 97 100 0 52 -13 76
-50 95 -39 20 -69 19 -106 -4z"/>
<path d="M10394 7026 c-69 -30 -87 -115 -35 -167 58 -58 159 -29 176 51 9 41
-19 95 -60 114 -39 19 -41 19 -81 2z"/>
<path d="M4887 7019 c-24 -14 -47 -62 -47 -98 0 -40 43 -89 85 -97 35 -6 65 5
102 39 27 24 26 24 39 -27 12 -50 51 -81 105 -81 34 0 46 6 71 34 27 30 30 39
25 80 -10 87 -100 122 -173 66 -40 -30 -44 -31 -44 -4 0 27 -18 60 -44 81 -23
19 -91 23 -119 7z"/>
<path d="M729 6981 c-81 -81 18 -219 120 -167 17 9 38 30 47 47 52 102 -86
201 -167 120z"/>
<path d="M10787 6969 c-21 -12 -47 -61 -47 -89 0 -67 72 -121 136 -100 114 38
91 201 -28 200 -24 0 -51 -5 -61 -11z"/>
<path d="M11203 6963 c-37 -7 -73 -59 -73 -105 0 -86 100 -130 168 -73 39 33
48 74 27 119 -15 31 -68 68 -92 65 -4 -1 -18 -4 -30 -6z"/>
<path d="M2110 6947 c-27 -21 -50 -60 -50 -85 0 -39 29 -83 67 -98 46 -20 86
-10 118 28 58 69 13 168 -77 168 -24 0 -50 -6 -58 -13z"/>
<path d="M4195 6939 c-36 -21 -55 -53 -55 -96 0 -59 31 -93 91 -100 38 -4 50
-1 76 21 17 15 34 39 38 55 7 32 -13 88 -38 109 -22 19 -88 25 -112 11z"/>
<path d="M4653 6925 c-52 -22 -77 -89 -52 -138 19 -38 51 -57 97 -57 115 0
143 151 36 196 -40 17 -41 17 -81 -1z"/>
<path d="M3204 6896 c-26 -26 -34 -42 -34 -71 0 -29 8 -45 34 -71 45 -45 92
-47 138 -5 28 25 33 36 33 76 0 40 -5 51 -33 76 -46 42 -93 40 -138 -5z"/>
<path d="M8614 6921 c-32 -14 -64 -60 -64 -93 0 -112 148 -150 199 -51 42 82
-50 180 -135 144z"/>
<path d="M9648 6895 c-65 -36 -73 -122 -17 -169 69 -58 169 -15 169 73 0 79
-86 133 -152 96z"/>
<path d="M482 6865 c-60 -50 -47 -142 24 -171 45 -19 79 -12 117 24 21 20 27
35 27 70 0 90 -99 135 -168 77z"/>
<path d="M11510 6863 c-8 -3 -27 -17 -42 -31 -40 -37 -40 -102 1 -143 56 -55
159 -26 176 50 16 75 -65 150 -135 124z"/>
<path d="M4440 6853 c-8 -3 -27 -17 -42 -31 -40 -37 -40 -102 1 -143 81 -81
219 18 167 120 -24 46 -80 71 -126 54z"/>
<path d="M980 6828 c-47 -32 -61 -85 -36 -132 34 -63 117 -76 167 -27 87 87
-29 228 -131 159z"/>
<path d="M9333 6836 c-56 -25 -79 -98 -46 -146 27 -40 45 -49 91 -50 35 0 49
6 73 29 80 81 -14 213 -118 167z"/>
<path d="M11759 6811 c-55 -56 -26 -159 50 -176 42 -9 96 17 116 55 53 103
-84 202 -166 121z"/>
<path d="M10161 6816 c-31 -17 -50 -53 -51 -94 0 -49 54 -102 104 -102 51 0
95 42 103 97 5 39 2 46 -30 78 -38 38 -81 46 -126 21z"/>
<path d="M10499 6801 c-64 -64 -18 -181 71 -181 37 0 81 30 96 67 43 103 -88
193 -167 114z"/>
<path d="M4843 6760 c-13 -5 -32 -24 -43 -42 -58 -91 43 -193 140 -143 37 19
50 43 50 92 -1 76 -74 122 -147 93z"/>
<path d="M2739 6731 c-63 -63 -20 -174 67 -174 51 0 80 16 100 55 53 103 -84
201 -167 119z"/>
<path d="M9831 6721 c-25 -24 -31 -37 -31 -71 0 -34 6 -48 34 -76 52 -52 127
-39 162 27 52 102 -81 198 -165 120z"/>
<path d="M10997 6714 c-54 -54 -40 -141 28 -170 105 -44 196 87 116 167 -40
40 -106 41 -144 3z"/>
<path d="M730 6698 c-86 -58 -50 -188 52 -188 50 0 74 13 93 50 23 45 19 85
-12 120 -39 42 -87 49 -133 18z"/>
<path d="M9039 6671 c-79 -79 11 -210 114 -167 37 15 67 59 67 96 0 29 -27 77
-49 90 -11 5 -38 10 -61 10 -33 0 -48 -6 -71 -29z"/>
<path d="M11282 6665 c-60 -50 -47 -142 24 -171 72 -30 144 18 144 98 0 86
-100 130 -168 73z"/>
<path d="M1191 6666 c-30 -16 -50 -52 -51 -89 -1 -93 102 -140 172 -78 28 25
33 36 33 76 0 40 -5 51 -33 76 -36 32 -80 38 -121 15z"/>
<path d="M8778 6664 c-38 -20 -61 -68 -54 -110 8 -41 57 -84 97 -84 102 0 146
105 75 176 -38 38 -73 43 -118 18z"/>
<path d="M10764 6662 c-52 -41 -58 -106 -16 -152 81 -90 225 8 168 114 -29 55
-108 74 -152 38z"/>
<path d="M2405 6661 c-28 -12 -55 -44 -64 -77 -7 -28 -9 -29 -64 -26 -52 4
-59 1 -87 -26 -40 -40 -42 -97 -5 -140 53 -63 141 -47 175 32 20 43 21 44 60
39 22 -3 52 0 68 6 31 13 62 58 62 91 0 37 -30 81 -65 96 -38 16 -51 16 -80 5z"/>
<path d="M7534 6652 c-12 -9 -27 -27 -33 -39 -40 -79 48 -176 130 -143 109 45
83 200 -33 200 -26 0 -52 -7 -64 -18z"/>
<path d="M8481 6644 c-44 -40 -50 -88 -19 -134 59 -88 188 -50 188 56 0 60
-31 94 -91 101 -40 5 -50 2 -78 -23z"/>
<path d="M4251 6644 c-30 -21 -51 -71 -44 -106 7 -35 47 -75 83 -83 77 -17
146 67 116 139 -18 43 -51 66 -96 66 -20 0 -46 -7 -59 -16z"/>
<path d="M9545 6645 c-51 -28 -71 -80 -51 -130 18 -43 52 -65 99 -65 89 0 132
108 69 172 -34 35 -78 44 -117 23z"/>
<path d="M5058 6635 c-65 -36 -73 -122 -17 -169 69 -58 169 -13 169 75 0 77
-87 131 -152 94z"/>
<path d="M258 6624 c-33 -18 -48 -43 -48 -83 0 -108 128 -150 188 -61 62 92
-41 198 -140 144z"/>
<path d="M4573 6628 c-98 -26 -97 -165 1 -198 64 -21 136 33 136 100 0 67 -69
116 -137 98z"/>
<path d="M11611 6596 c-57 -31 -67 -107 -22 -158 25 -28 36 -33 74 -33 55 0
93 31 103 82 17 88 -75 153 -155 109z"/>
<path d="M1575 6576 c-13 -13 -27 -37 -30 -53 -12 -53 -11 -52 -59 -35 -41 15
-47 15 -80 0 -19 -10 -42 -31 -51 -49 -53 -102 84 -201 166 -120 16 16 29 40
29 53 0 42 13 50 48 32 85 -42 179 47 142 136 -26 62 -118 82 -165 36z"/>
<path d="M10291 6574 c-30 -21 -51 -71 -44 -106 7 -35 47 -75 83 -83 77 -17
146 67 116 139 -18 43 -51 66 -96 66 -20 0 -46 -7 -59 -16z"/>
<path d="M11894 6561 c-64 -39 -63 -135 0 -177 33 -21 100 -14 128 13 46 47
39 131 -15 163 -40 25 -73 25 -113 1z"/>
<path d="M3203 6560 c-13 -5 -32 -24 -43 -42 -58 -91 43 -193 140 -143 37 19
50 43 50 92 -1 76 -74 122 -147 93z"/>
<path d="M489 6531 c-65 -65 -15 -177 77 -174 49 1 81 26 95 72 22 75 -20 131
-99 131 -35 0 -49 -6 -73 -29z"/>
<path d="M9267 6540 c-63 -50 -52 -146 19 -176 44 -19 84 -11 117 22 31 31 39
70 22 110 -26 63 -106 85 -158 44z"/>
<path d="M10020 6538 c-86 -58 -50 -188 52 -188 50 0 74 13 93 50 23 45 19 85
-12 120 -39 42 -87 49 -133 18z"/>
<path d="M10590 6543 c-40 -12 -60 -29 -75 -60 -49 -103 85 -194 166 -114 41
41 41 106 2 143 -29 26 -67 39 -93 31z"/>
<path d="M944 6506 c-26 -26 -34 -42 -34 -71 0 -52 53 -105 105 -105 52 0 105
53 105 105 0 52 -53 105 -105 105 -29 0 -45 -8 -71 -34z"/>
<path d="M4788 6483 c-14 -9 -31 -27 -37 -40 -49 -107 74 -202 161 -124 28 25
33 36 33 76 0 40 -5 51 -33 76 -37 33 -82 38 -124 12z"/>
<path d="M9743 6480 c-39 -24 -53 -48 -53 -95 0 -104 151 -132 199 -38 25 50
-1 116 -54 139 -45 18 -54 18 -92 -6z"/>
<path d="M1819 6451 c-64 -64 -18 -181 71 -181 62 0 118 70 105 131 -17 76
-120 105 -176 50z"/>
<path d="M11144 6441 c-36 -22 -58 -75 -48 -115 10 -41 59 -76 106 -76 30 0
46 7 69 29 84 85 -26 226 -127 162z"/>
<path d="M8955 6428 c-36 -19 -55 -52 -55 -93 0 -93 103 -138 172 -76 28 25
33 36 33 76 0 40 -5 51 -33 76 -34 31 -80 38 -117 17z"/>
<path d="M11414 6412 c-45 -36 -55 -82 -29 -132 34 -66 121 -76 169 -19 59 70
14 169 -76 169 -26 0 -52 -7 -64 -18z"/>
<path d="M4244 6402 c-65 -52 -53 -147 23 -178 46 -20 86 -10 118 28 58 69 13
168 -77 168 -26 0 -52 -7 -64 -18z"/>
<path d="M8609 6391 c-59 -60 -28 -161 54 -176 103 -20 165 112 85 180 -43 36
-100 34 -139 -4z"/>
<path d="M10914 6410 c-36 -14 -64 -59 -64 -102 0 -87 101 -130 169 -72 89 75
3 218 -105 174z"/>
<path d="M743 6388 c-36 -18 -58 -71 -47 -115 20 -82 119 -107 177 -43 79 88
-21 211 -130 158z"/>
<path d="M8024 6366 c-26 -26 -34 -42 -34 -71 0 -29 8 -45 34 -71 26 -26 42
-34 71 -34 29 0 45 8 71 34 26 26 34 42 34 71 0 29 -8 45 -34 71 -26 26 -42
34 -71 34 -29 0 -45 -8 -71 -34z"/>
<path d="M8328 6371 c-64 -57 -35 -161 50 -177 43 -8 94 16 111 52 49 108 -74
203 -161 125z"/>
<path d="M4550 6359 c-59 -24 -84 -82 -60 -140 17 -41 47 -59 95 -59 112 1
145 143 45 195 -33 17 -45 18 -80 4z"/>
<path d="M1174 6342 c-12 -9 -27 -27 -33 -39 -40 -77 41 -170 125 -143 114 38
91 200 -28 200 -26 0 -52 -7 -64 -18z"/>
<path d="M3439 6331 c-79 -79 11 -210 114 -167 108 45 76 195 -41 196 -35 0
-49 -6 -73 -29z"/>
<path d="M9503 6346 c-41 -19 -67 -68 -59 -111 16 -83 117 -115 177 -56 80 81
-14 213 -118 167z"/>
<path d="M11763 6340 c-41 -25 -58 -79 -39 -125 44 -105 196 -77 196 35 0 52
-13 76 -50 95 -39 20 -69 19 -107 -5z m4 -82 c-2 -13 -4 -5 -4 17 -1 22 1 32
4 23 2 -10 2 -28 0 -40z m110 0 c-2 -13 -4 -5 -4 17 -1 22 1 32 4 23 2 -10 2
-28 0 -40z"/>
<path d="M293 6315 c-32 -32 -35 -39 -30 -78 15 -107 143 -132 192 -37 24 46
19 78 -19 116 -48 48 -95 47 -143 -1z"/>
<path d="M9225 6311 c-39 -16 -60 -51 -60 -98 0 -38 5 -49 33 -74 69 -62 172
-17 172 76 0 77 -73 125 -145 96z"/>
<path d="M10134 6300 c-47 -19 -71 -100 -44 -151 13 -22 61 -49 90 -49 37 0
81 30 96 67 37 88 -51 170 -142 133z"/>
<path d="M10378 6281 c-28 -25 -33 -36 -33 -76 0 -40 5 -51 33 -76 22 -20 43
-29 67 -29 24 0 45 9 67 29 28 25 33 36 33 76 0 40 -5 51 -33 76 -22 20 -43
29 -67 29 -24 0 -45 -9 -67 -29z"/>
<path d="M10682 6295 c-39 -17 -66 -73 -57 -116 17 -76 120 -105 176 -50 82
82 -12 214 -119 166z"/>
<path d="M38 6260 c-21 -23 -38 -51 -38 -63 0 -34 55 -94 93 -102 47 -10 48
-13 32 -45 -23 -45 -19 -85 14 -122 25 -28 36 -33 75 -33 58 0 95 33 103 93 5
37 2 45 -30 77 -21 21 -45 35 -59 35 -35 0 -39 8 -23 41 41 78 -8 159 -96 159
-24 0 -41 -10 -71 -40z"/>
<path d="M1657 6289 c-9 -5 -24 -23 -32 -39 -48 -93 44 -192 134 -146 66 35
79 110 27 162 -27 27 -42 34 -72 34 -22 0 -47 -5 -57 -11z"/>
<path d="M4918 6271 c-28 -25 -33 -36 -33 -75 0 -58 33 -95 93 -103 37 -5 45
-2 77 30 28 28 35 43 35 74 -1 91 -103 136 -172 74z"/>
<path d="M9854 6261 c-90 -55 -47 -191 59 -191 103 0 137 148 45 196 -37 19
-67 18 -104 -5z"/>
<path d="M2055 6252 c-30 -6 -73 -51 -80 -82 -16 -73 60 -143 130 -120 100 33
100 172 0 198 -16 5 -39 6 -50 4z"/>
<path d="M514 6206 c-40 -40 -44 -75 -14 -124 49 -81 167 -58 186 36 13 66
-36 122 -107 122 -22 0 -41 -10 -65 -34z"/>
<path d="M972 6195 c-59 -49 -46 -142 24 -171 45 -19 79 -12 117 24 21 20 27
35 27 70 0 90 -99 135 -168 77z m15 -82 c-3 -10 -5 -2 -5 17 0 19 2 27 5 18 2
-10 2 -26 0 -35z m110 0 c-3 -10 -5 -2 -5 17 0 19 2 27 5 18 2 -10 2 -26 0
-35z"/>
<path d="M1434 6210 c-73 -29 -84 -130 -20 -182 45 -37 127 -16 155 39 43 84
-47 179 -135 143z"/>
<path d="M2344 6206 c-42 -19 -64 -52 -64 -99 0 -114 168 -137 201 -28 16 53
-8 107 -55 126 -42 18 -43 18 -82 1z"/>
<path d="M8761 6196 c-30 -16 -50 -52 -51 -89 -1 -93 102 -140 172 -78 28 25
33 36 33 76 0 40 -5 51 -33 76 -36 32 -80 38 -121 15z"/>
<path d="M4309 6161 c-23 -24 -29 -38 -29 -73 0 -54 19 -83 65 -98 48 -16 100
2 120 40 40 78 -4 160 -85 160 -33 0 -48 -6 -71 -29z"/>
<path d="M11238 6167 c-14 -13 -29 -34 -33 -45 -8 -27 -15 -27 -60 -1 -46 28
-94 20 -129 -22 -14 -17 -26 -37 -26 -44 0 -25 -18 -26 -60 -4 -36 19 -46 20
-80 10 -47 -14 -70 -47 -70 -101 0 -118 163 -138 200 -25 6 19 14 35 17 35 3
0 16 -9 30 -20 37 -29 94 -26 132 6 17 14 31 32 31 39 0 26 21 27 64 4 51 -27
85 -21 129 22 26 27 29 35 24 77 -7 61 -41 92 -101 92 -31 0 -50 -6 -68 -23z"/>
<path d="M4724 6170 c-34 -13 -64 -59 -64 -97 0 -50 54 -103 105 -103 52 0
105 53 105 105 0 29 -8 45 -34 71 -35 35 -68 42 -112 24z"/>
<path d="M2968 6154 c-35 -19 -48 -43 -48 -91 1 -112 153 -141 196 -36 40 93
-57 177 -148 127z"/>
<path d="M2647 6149 c-21 -12 -47 -61 -47 -89 0 -67 72 -121 136 -100 114 38
91 201 -28 200 -24 0 -51 -5 -61 -11z"/>
<path d="M9018 6111 c-28 -25 -33 -36 -33 -76 0 -40 5 -51 33 -76 68 -61 172
-15 172 76 0 92 -103 137 -172 76z"/>
<path d="M8422 6105 c-59 -50 -47 -136 22 -169 72 -34 146 15 146 96 0 86
-100 130 -168 73z"/>
<path d="M9650 6117 c-14 -7 -33 -29 -43 -50 -45 -92 50 -180 143 -132 37 19
50 43 50 90 0 47 -13 71 -50 90 -35 18 -67 19 -100 2z"/>
<path d="M783 6096 c-52 -23 -77 -90 -52 -139 19 -38 51 -57 97 -57 35 0 49 6
73 29 80 81 -14 213 -118 167z"/>
<path d="M8072 6095 c-39 -17 -66 -73 -57 -116 10 -44 58 -79 110 -79 l44 0
-26 -49 c-22 -45 -24 -53 -13 -86 13 -40 59 -75 98 -75 31 0 79 26 92 49 5 11
10 38 10 61 0 60 -41 100 -104 100 -25 0 -46 3 -46 6 0 3 9 17 20 31 30 38 27
95 -7 133 -34 36 -76 45 -121 25z"/>
<path d="M1824 6074 c-39 -19 -58 -54 -57 -102 2 -51 48 -92 104 -92 113 0
139 160 32 201 -32 12 -42 11 -79 -7z"/>
<path d="M7833 6076 c-17 -8 -39 -29 -48 -46 -53 -103 84 -202 166 -121 80 81
-14 213 -118 167z m47 -120 c0 -9 -40 -13 -46 -5 -3 5 6 9 20 9 14 0 26 -2 26
-4z"/>
<path d="M9354 6070 c-36 -14 -64 -59 -64 -102 0 -102 141 -137 193 -48 21 35
21 62 2 100 -25 48 -82 70 -131 50z"/>
<path d="M6554 6026 c-26 -26 -34 -42 -34 -71 0 -29 8 -45 34 -71 26 -26 42
-34 71 -34 29 0 45 8 71 34 26 26 34 42 34 71 0 29 -8 45 -34 71 -26 26 -42
34 -71 34 -29 0 -45 -8 -71 -34z"/>
<path d="M10583 6053 c-30 -6 -71 -46 -79 -77 -14 -56 27 -118 84 -129 35 -7
85 14 106 44 21 30 21 88 0 118 -14 19 -76 55 -86 50 -2 -1 -13 -4 -25 -6z"/>
<path d="M1233 6035 c-33 -14 -63 -59 -63 -95 0 -29 27 -77 49 -90 11 -5 38
-10 61 -10 34 0 48 6 71 31 52 56 34 135 -37 165 -40 17 -41 17 -81 -1z"/>
<path d="M10014 6040 c-66 -27 -85 -120 -35 -171 56 -55 159 -26 176 50 10 45
-18 99 -59 116 -40 17 -52 17 -82 5z"/>
<path d="M6909 6011 c-35 -36 -39 -88 -9 -136 51 -82 190 -34 190 65 0 87
-118 133 -181 71z"/>
<path d="M10267 6029 c-24 -14 -47 -62 -47 -98 0 -42 45 -90 90 -97 26 -4 44
0 70 18 90 61 47 189 -63 188 -18 0 -40 -5 -50 -11z"/>
<path d="M4492 6005 c-45 -20 -68 -75 -53 -126 33 -109 201 -86 201 28 0 47
-22 81 -66 99 -40 17 -41 17 -82 -1z"/>
<path d="M3454 5966 c-26 -26 -34 -42 -34 -70 0 -51 42 -95 97 -103 39 -5 46
-2 78 30 71 71 26 177 -76 177 -22 0 -41 -10 -65 -34z m106 -96 c0 -5 -8 -10
-17 -10 -15 0 -16 2 -3 10 19 12 20 12 20 0z m-53 -6 c-3 -3 -12 -4 -19 -1 -8
3 -5 6 6 6 11 1 17 -2 13 -5z"/>
<path d="M4203 5983 c-12 -2 -34 -18 -48 -34 -58 -70 -13 -169 77 -169 112 0
145 153 43 196 -19 8 -38 13 -42 13 -4 -1 -18 -4 -30 -6z"/>
<path d="M1573 5973 c-12 -2 -34 -18 -49 -36 -22 -26 -25 -38 -21 -76 7 -60
41 -91 101 -91 107 0 140 147 43 193 -19 9 -39 16 -44 16 -4 -1 -18 -4 -30 -6z"/>
<path d="M2111 5954 c-58 -48 -47 -135 20 -170 69 -35 149 18 149 98 0 87
-100 130 -169 72z"/>
<path d="M2492 5968 c-45 -12 -75 -60 -68 -111 5 -46 27 -72 72 -87 28 -10 40
-8 71 7 47 22 65 56 59 107 -8 65 -66 102 -134 84z"/>
<path d="M7584 5970 c-34 -13 -64 -59 -64 -97 0 -47 54 -103 99 -103 66 0 111
44 111 111 0 22 -10 41 -34 65 -35 35 -68 42 -112 24z"/>
<path d="M8618 5957 c-67 -62 -38 -162 52 -182 35 -8 83 15 106 50 24 36 13
103 -21 132 -36 32 -103 31 -137 0z"/>
<path d="M8859 5891 c-75 -76 1 -199 105 -170 40 11 76 57 76 97 0 31 -26 79
-49 92 -11 5 -38 10 -61 10 -33 0 -48 -6 -71 -29z"/>
<path d="M11668 5893 c-36 -38 -43 -72 -24 -117 29 -70 122 -83 171 -24 58 69
13 168 -77 168 -35 0 -50 -6 -70 -27z"/>
<path d="M969 5871 c-55 -55 -33 -150 40 -172 109 -33 186 103 99 176 -43 36
-100 34 -139 -4z"/>
<path d="M9504 5856 c-52 -52 -39 -127 27 -162 102 -52 201 86 120 167 -43 43
-101 41 -147 -5z"/>
<path d="M9813 5875 c-52 -22 -77 -89 -52 -138 19 -38 51 -57 97 -57 35 0 49
6 73 29 80 80 -14 212 -118 166z"/>
<path d="M9129 5832 c-26 -23 -32 -36 -32 -68 0 -54 17 -83 60 -100 72 -31
143 15 143 93 0 94 -101 138 -171 75z"/>
<path d="M6789 5811 c-23 -24 -29 -38 -29 -74 0 -37 6 -51 31 -76 36 -37 78
-41 125 -12 60 36 65 112 12 169 -33 34 -101 31 -139 -7z"/>
<path d="M7880 5823 c-40 -27 -49 -45 -50 -91 0 -90 99 -135 168 -77 38 32 48
72 28 118 -24 60 -97 84 -146 50z"/>
<path d="M1853 5810 c-57 -34 -62 -125 -10 -168 27 -23 93 -27 123 -8 85 56
45 196 -56 196 -14 0 -39 -9 -57 -20z"/>
<path d="M7344 5820 c-56 -22 -79 -93 -49 -150 19 -36 43 -50 88 -50 73 0 126
85 93 148 -26 50 -82 72 -132 52z"/>
<path d="M8389 5801 c-81 -81 18 -219 120 -167 17 9 38 30 47 47 52 102 -86
201 -167 120z"/>
<path d="M6351 5784 c-58 -48 -47 -135 20 -170 69 -35 149 18 149 98 0 87
-100 130 -169 72z"/>
<path d="M10749 5781 c-39 -39 -40 -96 -4 -139 50 -60 142 -47 171 24 20 47
11 87 -28 119 -43 36 -100 35 -139 -4z"/>
<path d="M5200 5789 c-39 -15 -60 -49 -60 -97 0 -119 162 -142 200 -28 15 45
-7 99 -49 120 -34 18 -55 19 -91 5z"/>
<path d="M10429 5771 c-64 -64 -18 -181 71 -181 37 0 81 30 96 67 43 103 -88
193 -167 114z"/>
<path d="M1313 5761 c-33 -21 -46 -48 -45 -94 2 -61 61 -105 125 -93 82 15
110 124 47 181 -29 26 -89 30 -127 6z"/>
<path d="M10143 5764 c-17 -9 -39 -31 -48 -50 -31 -66 19 -144 94 -144 111 0
145 147 46 195 -41 19 -52 19 -92 -1z"/>
<path d="M2311 5756 c-30 -16 -50 -52 -51 -89 -1 -93 102 -140 172 -78 28 25
33 36 33 76 0 40 -5 51 -33 76 -36 32 -80 38 -121 15z"/>
<path d="M4235 5729 c-36 -21 -55 -53 -55 -94 0 -93 103 -138 172 -76 28 25
33 36 33 75 0 36 -6 51 -26 72 -30 29 -93 41 -124 23z"/>
<path d="M8649 5691 c-81 -81 18 -219 120 -167 17 9 38 30 47 47 52 102 -86
201 -167 120z"/>
<path d="M7610 5693 c-65 -33 -77 -117 -25 -169 34 -34 106 -34 140 0 85 85
-9 223 -115 169z"/>
<path d="M9362 5695 c-39 -17 -66 -73 -57 -116 17 -76 120 -105 176 -50 81 81
-14 213 -119 166z"/>
<path d="M1594 5682 c-103 -83 2 -242 114 -172 61 38 69 105 18 156 -27 27
-42 34 -72 34 -22 0 -49 -8 -60 -18z"/>
<path d="M11738 5664 c-95 -51 -62 -193 45 -194 49 0 73 13 92 50 30 59 13
115 -45 145 -36 19 -57 18 -92 -1z"/>
<path d="M8154 5663 c-12 -2 -34 -17 -49 -33 -63 -66 -17 -170 75 -170 29 0
48 7 71 28 77 69 6 197 -97 175z"/>
<path d="M2069 5631 c-64 -64 -18 -181 71 -181 62 0 118 70 105 131 -17 76
-120 105 -176 50z"/>
<path d="M8938 5634 c-65 -35 -73 -121 -17 -168 70 -59 169 -14 169 76 -1 85
-78 133 -152 92z"/>
<path d="M9634 5631 c-32 -14 -64 -60 -64 -93 0 -64 45 -108 111 -108 46 0 99
56 99 104 0 69 -83 124 -146 97z"/>
<path d="M9896 5625 c-42 -22 -55 -44 -56 -93 -1 -115 151 -143 196 -36 21 50
-1 105 -51 129 -41 19 -53 19 -89 0z"/>
<path d="M1090 5607 c-9 -7 -24 -23 -33 -37 -52 -75 31 -179 119 -150 114 38
91 201 -28 200 -24 0 -50 -6 -58 -13z"/>
<path d="M6721 5606 c-57 -31 -67 -107 -22 -158 25 -28 36 -33 75 -33 58 0 95
33 103 92 4 35 1 45 -27 76 -26 30 -39 37 -69 37 -20 -1 -47 -7 -60 -14z"/>
<path d="M7043 5600 c-87 -53 -45 -190 59 -190 102 0 136 150 43 194 -43 21
-63 20 -102 -4z"/>
<path d="M3185 5574 c-51 -26 -71 -79 -51 -129 18 -42 52 -65 96 -65 110 0
144 148 45 195 -41 19 -53 19 -90 -1z"/>
<path d="M7342 5565 c-39 -17 -66 -73 -57 -116 17 -76 120 -105 176 -50 81 81
-14 213 -119 166z"/>
<path d="M10657 5560 c-38 -30 -52 -80 -33 -123 45 -108 195 -76 196 41 0 86
-96 134 -163 82z"/>
<path d="M7837 5550 c-38 -30 -52 -80 -33 -123 15 -37 59 -67 96 -67 29 0 77
27 90 49 5 11 10 38 10 61 0 84 -97 132 -163 80z"/>
<path d="M8388 5541 c-28 -25 -33 -36 -33 -76 0 -40 5 -51 33 -76 68 -61 172
-15 172 76 0 92 -103 137 -172 76z"/>
<path d="M6163 5535 c-33 -14 -63 -59 -63 -95 0 -29 27 -77 49 -90 11 -5 40
-10 65 -10 l46 0 0 -44 c0 -84 70 -133 144 -102 43 18 71 71 61 117 -10 45
-58 79 -111 79 l-44 0 0 43 c0 51 -21 84 -66 103 -40 17 -41 17 -81 -1z"/>
<path d="M10339 5511 c-64 -64 -20 -174 70 -174 35 0 49 6 74 32 67 66 23 171
-71 171 -35 0 -49 -6 -73 -29z"/>
<path d="M1839 5501 c-55 -55 -31 -146 45 -171 88 -29 171 75 119 150 -27 40
-45 49 -91 50 -35 0 -49 -6 -73 -29z m18 -78 c-3 -10 -5 -2 -5 17 0 19 2 27 5
18 2 -10 2 -26 0 -35z m110 0 c-3 -10 -5 -2 -5 17 0 19 2 27 5 18 2 -10 2 -26
0 -35z"/>
<path d="M9154 5496 c-26 -26 -34 -42 -34 -71 0 -29 8 -45 34 -71 26 -26 42
-34 71 -34 29 0 45 8 71 34 70 70 24 176 -77 176 -22 0 -41 -10 -65 -34z"/>
<path d="M1383 5465 c-34 -14 -63 -59 -63 -97 0 -13 9 -37 20 -55 51 -84 190
-44 190 55 0 47 -23 80 -66 98 -40 17 -41 17 -81 -1z"/>
<path d="M8683 5455 c-52 -22 -77 -89 -52 -138 19 -38 51 -57 97 -57 115 0
143 151 36 196 -40 17 -41 17 -81 -1z"/>
<path d="M10068 5441 c-28 -25 -33 -36 -33 -75 0 -36 6 -51 28 -73 22 -22 37
-28 73 -28 39 0 50 5 75 33 22 24 29 42 29 73 0 90 -103 132 -172 70z"/>
<path d="M2300 5423 c-75 -68 -27 -183 77 -183 40 0 93 60 93 105 0 47 -13 71
-50 90 -45 23 -85 19 -120 -12z"/>
<path d="M1663 5423 c-37 -7 -73 -59 -73 -105 0 -86 100 -130 168 -73 39 33
48 74 27 119 -15 31 -68 68 -92 65 -4 -1 -18 -4 -30 -6z"/>
<path d="M9429 5401 c-58 -58 -29 -159 51 -176 44 -10 98 18 115 59 45 106
-85 197 -166 117z"/>
<path d="M7592 5408 c-37 -10 -72 -58 -72 -98 0 -14 9 -39 19 -56 58 -94 203
-42 188 68 -9 68 -66 104 -135 86z"/>
<path d="M8118 5393 c-34 -37 -42 -66 -28 -107 18 -57 80 -85 135 -62 43 18
65 52 65 99 0 87 -113 133 -172 70z"/>
<path d="M9729 5351 c-81 -81 18 -219 120 -167 17 9 38 30 47 47 52 102 -86
201 -167 120z"/>
<path d="M8970 5363 c-61 -19 -95 -68 -84 -122 14 -67 106 -104 163 -65 30 21
51 71 44 106 -9 48 -79 95 -123 81z"/>
<path d="M6985 5351 c-39 -16 -60 -51 -60 -98 0 -38 5 -49 33 -74 88 -79 210
16 160 126 -20 45 -82 66 -133 46z"/>
<path d="M1122 5335 c-39 -17 -66 -73 -57 -116 17 -76 120 -105 176 -50 81 81
-14 213 -119 166z m41 -122 c-7 -2 -19 -2 -25 0 -7 3 -2 5 12 5 14 0 19 -2 13
-5z"/>
<path d="M2071 5336 c-31 -17 -50 -53 -51 -94 0 -26 9 -43 35 -69 32 -32 40
-35 77 -30 60 8 93 45 93 103 0 39 -5 50 -33 75 -36 32 -80 38 -121 15z"/>
<path d="M7253 5330 c-41 -25 -58 -79 -39 -125 39 -92 164 -86 196 9 21 64
-33 136 -102 136 -13 0 -37 -9 -55 -20z"/>
<path d="M10805 5317 c-28 -28 -35 -43 -35 -73 1 -92 103 -137 172 -75 28 25
33 36 33 75 0 58 -33 95 -93 103 -37 5 -45 2 -77 -30z"/>
<path d="M3162 5305 c-39 -32 -48 -72 -28 -119 29 -71 121 -84 171 -24 82 97
-46 225 -143 143z"/>
<path d="M3433 5310 c-85 -51 -44 -190 56 -190 76 0 126 74 97 143 -15 38 -59
67 -98 67 -13 0 -37 -9 -55 -20z"/>
<path d="M7862 5295 c-38 -32 -48 -72 -28 -118 45 -108 195 -76 196 41 0 90
-99 135 -168 77z"/>
<path d="M11074 5306 c-41 -18 -64 -52 -64 -96 0 -71 64 -118 134 -99 40 11
76 57 76 97 0 39 -29 83 -65 98 -41 17 -42 17 -81 0z"/>
<path d="M8401 5294 c-68 -48 -54 -158 24 -184 71 -23 135 23 135 97 0 36 -6
50 -29 74 -34 34 -92 40 -130 13z"/>
<path d="M10524 5276 c-26 -26 -34 -42 -34 -71 0 -29 8 -45 34 -71 26 -26 42
-34 71 -34 29 0 45 8 71 34 26 26 34 42 34 71 0 29 -8 45 -34 71 -26 26 -42
34 -71 34 -29 0 -45 -8 -71 -34z"/>
<path d="M9215 5251 c-34 -15 -56 -47 -62 -90 -5 -36 -2 -44 30 -76 25 -25 44
-35 66 -35 66 0 111 44 111 109 0 63 -86 118 -145 92z"/>
<path d="M2549 5221 c-23 -24 -29 -38 -29 -74 0 -112 153 -145 196 -42 44 105
-87 196 -167 116z"/>
<path d="M6729 5221 c-23 -23 -29 -38 -29 -71 0 -23 5 -50 10 -61 13 -22 61
-49 90 -49 37 0 81 30 96 67 43 103 -88 193 -167 114z"/>
<path d="M10261 5234 c-69 -49 -54 -158 25 -184 72 -24 134 22 134 100 0 81
-93 130 -159 84z m6 -86 c-2 -13 -4 -5 -4 17 -1 22 1 32 4 23 2 -10 2 -28 0
-40z m110 0 c-2 -13 -4 -5 -4 17 -1 22 1 32 4 23 2 -10 2 -28 0 -40z"/>
<path d="M8692 5195 c-45 -20 -68 -75 -53 -127 15 -47 44 -68 98 -68 53 0 91
31 99 80 14 87 -65 150 -144 115z"/>
<path d="M9981 5196 c-57 -31 -67 -107 -22 -158 25 -28 36 -33 76 -33 40 0 51
5 76 33 80 89 -25 216 -130 158z"/>
<path d="M1808 5171 c-28 -25 -33 -36 -33 -76 0 -40 5 -51 33 -76 68 -61 172
-15 172 76 0 92 -103 137 -172 76z"/>
<path d="M1529 5151 c-59 -60 -28 -161 54 -176 103 -20 165 112 85 180 -43 36
-100 34 -139 -4z"/>
<path d="M9461 5154 c-57 -48 -47 -135 19 -169 46 -24 78 -19 116 19 28 28 34
42 34 76 0 89 -100 133 -169 74z"/>
<path d="M8131 5144 c-60 -50 -46 -140 26 -170 46 -20 86 -10 118 28 82 98
-46 225 -144 142z"/>
<path d="M1279 5145 c-58 -32 -63 -123 -8 -169 102 -86 228 67 129 157 -34 30
-79 35 -121 12z"/>
<path d="M7663 5140 c-37 -22 -54 -69 -42 -115 31 -113 199 -92 199 25 0 52
-13 76 -50 95 -39 20 -69 19 -107 -5z"/>
<path d="M2334 5141 c-32 -14 -64 -60 -64 -93 0 -81 78 -131 153 -97 31 14 57
59 57 98 0 64 -85 118 -146 92z"/>
<path d="M7435 5119 c-36 -21 -55 -53 -55 -96 0 -57 31 -92 87 -100 53 -7 89
14 109 64 17 40 7 89 -26 118 -23 21 -89 29 -115 14z"/>
<path d="M3008 5091 c-28 -25 -33 -36 -33 -76 0 -40 5 -51 33 -76 69 -61 172
-16 172 76 0 91 -104 137 -172 76z"/>
<path d="M9738 5094 c-15 -8 -32 -23 -38 -34 -13 -24 -13 -86 0 -111 13 -23
61 -49 92 -49 67 0 123 80 98 141 -26 63 -92 86 -152 53z"/>
<path d="M7129 5071 c-80 -81 11 -211 117 -166 41 17 69 72 59 114 -20 80
-118 109 -176 52z"/>
<path d="M3305 5076 c-28 -12 -45 -35 -59 -79 -8 -25 17 -81 45 -101 13 -9 39
-16 59 -16 113 0 144 162 38 199 -39 14 -46 13 -83 -3z m40 -126 c-27 -12 -35
-12 -35 0 0 6 12 10 28 9 24 0 25 -1 7 -9z"/>
<path d="M8938 5061 c-28 -25 -33 -36 -33 -76 0 -40 5 -51 33 -76 46 -42 93
-40 138 5 97 97 -36 238 -138 147z"/>
<path d="M5728 5051 c-28 -25 -33 -36 -33 -76 0 -40 5 -51 33 -76 69 -61 172
-16 172 76 0 92 -103 137 -172 76z"/>
<path d="M8443 5055 c-41 -17 -67 -67 -59 -110 16 -83 117 -115 177 -56 80 80
-14 212 -118 166z"/>
<path d="M10745 5061 c-39 -16 -60 -51 -60 -98 0 -38 5 -49 33 -74 77 -69 190
-2 167 101 -13 59 -83 94 -140 71z"/>
<path d="M2052 5035 c-39 -32 -48 -72 -28 -119 29 -70 122 -82 171 -24 82 97
-46 225 -143 143z"/>
<path d="M11060 5049 c-59 -24 -84 -82 -60 -140 17 -41 47 -59 98 -59 126 0
136 179 12 204 -14 3 -36 1 -50 -5z"/>
<path d="M7879 5019 c-42 -46 -41 -99 5 -145 21 -21 44 -34 60 -34 34 0 33 -7
-5 -46 -45 -46 -45 -103 0 -147 24 -25 39 -32 71 -32 90 0 137 110 75 175 -15
15 -42 31 -61 35 -19 3 -34 8 -34 11 0 2 14 17 31 32 21 19 32 39 36 69 5 39
2 46 -30 78 -29 29 -42 35 -77 35 -34 0 -47 -6 -71 -31z"/>
<path d="M3574 5022 c-52 -42 -58 -106 -15 -154 25 -28 36 -33 76 -33 40 0 51
5 76 33 31 35 37 73 17 117 -23 51 -111 72 -154 37z"/>
<path d="M6882 5005 c-59 -50 -46 -136 25 -170 103 -49 195 85 114 166 -39 39
-96 40 -139 4z"/>
<path d="M10443 5010 c-85 -52 -44 -190 57 -190 70 0 117 66 98 138 -10 37
-58 72 -98 72 -14 0 -39 -9 -57 -20z"/>
<path d="M2635 5002 c-55 -13 -89 -67 -78 -126 15 -76 117 -104 174 -47 71 71
1 197 -96 173z"/>
<path d="M9204 4956 c-26 -26 -34 -42 -34 -70 0 -51 42 -95 97 -103 39 -5 46
-2 78 30 71 71 26 177 -76 177 -22 0 -41 -10 -65 -34z"/>
<path d="M10111 4964 c-57 -48 -47 -135 19 -169 46 -24 78 -19 116 19 28 28
34 42 34 76 0 89 -100 133 -169 74z"/>
<path d="M6611 4954 c-58 -48 -47 -135 20 -170 69 -35 149 18 149 98 0 87
-100 130 -169 72z"/>
<path d="M6374 4940 c-36 -14 -64 -59 -64 -102 0 -87 101 -130 169 -72 89 75
3 218 -105 174z"/>
<path d="M8689 4911 c-59 -60 -27 -161 56 -177 68 -13 135 58 120 127 -17 76
-120 105 -176 50z"/>
<path d="M8223 4923 c-12 -2 -34 -18 -48 -34 -58 -70 -13 -169 77 -169 112 0
145 153 43 196 -19 8 -38 13 -42 13 -4 -1 -18 -4 -30 -6z"/>
<path d="M1459 4891 c-23 -23 -29 -38 -29 -71 0 -23 5 -50 10 -61 13 -22 61
-49 90 -49 37 0 81 30 96 67 43 103 -88 193 -167 114z m58 -107 c-3 -3 -12 -4
-19 -1 -8 3 -5 6 6 6 11 1 17 -2 13 -5z"/>
<path d="M9507 4896 c-73 -68 -26 -181 74 -181 89 0 133 113 70 176 -39 39
-105 41 -144 5z"/>
<path d="M1149 4879 c-84 -90 29 -226 131 -157 24 16 38 35 44 61 26 102 -103
173 -175 96z"/>
<path d="M1774 4900 c-66 -27 -85 -120 -35 -171 56 -55 159 -26 176 50 10 45
-18 99 -59 116 -40 17 -52 17 -82 5z"/>
<path d="M6088 4894 c-36 -19 -48 -43 -48 -94 0 -33 6 -48 29 -71 65 -64 171
-20 171 71 0 52 -13 76 -50 95 -36 19 -67 19 -102 -1z"/>
<path d="M2874 4881 c-36 -22 -58 -75 -48 -115 10 -41 59 -76 106 -76 106 0
138 150 41 199 -32 16 -64 14 -99 -8z"/>
<path d="M7364 4871 c-32 -14 -64 -60 -64 -93 0 -81 78 -131 153 -97 31 14 57
59 57 98 0 64 -85 118 -146 92z"/>
<path d="M7670 4873 c-8 -3 -27 -17 -42 -31 -40 -37 -40 -102 1 -143 81 -80
211 11 166 117 -19 46 -79 74 -125 57z"/>
<path d="M9813 4835 c-32 -32 -35 -40 -30 -77 8 -60 45 -93 103 -93 39 0 50 5
75 33 62 69 17 171 -74 172 -31 0 -46 -7 -74 -35z"/>
<path d="M2345 4838 c-37 -20 -55 -52 -55 -96 0 -116 155 -142 200 -33 34 82
-67 172 -145 129z"/>
<path d="M10918 4825 c-15 -8 -32 -24 -38 -35 -15 -27 -12 -92 5 -116 20 -30
68 -47 108 -40 82 15 110 124 47 181 -26 23 -89 29 -122 10z"/>
<path d="M7081 4816 c-57 -31 -67 -107 -22 -158 25 -28 36 -33 76 -33 40 0 51
5 76 33 80 89 -25 216 -130 158z"/>
<path d="M2060 4809 c-59 -24 -84 -82 -60 -140 17 -41 47 -59 98 -59 126 0
136 179 12 204 -14 3 -36 1 -50 -5z"/>
<path d="M8451 4794 c-13 -9 -29 -32 -37 -50 -27 -65 26 -144 96 -144 66 0
120 74 100 135 -22 67 -104 97 -159 59z"/>
<path d="M9010 4803 c-40 -12 -60 -29 -75 -60 -49 -103 85 -194 166 -114 40
40 41 98 2 140 -28 29 -65 43 -93 34z"/>
<path d="M3144 4766 c-26 -26 -34 -42 -34 -71 0 -29 8 -45 34 -71 26 -26 42
-34 71 -34 29 0 45 8 71 34 26 26 34 42 34 71 0 29 -8 45 -34 71 -26 26 -42
34 -71 34 -29 0 -45 -8 -71 -34z"/>
<path d="M10309 4761 c-56 -57 -30 -156 47 -175 101 -26 169 101 95 175 -23
23 -38 29 -71 29 -33 0 -48 -6 -71 -29z"/>
<path d="M10621 4744 c-58 -48 -47 -135 20 -170 69 -35 149 18 149 98 0 87
-100 130 -169 72z"/>
<path d="M9315 4741 c-33 -14 -56 -47 -62 -90 -5 -36 -2 -44 30 -76 71 -71
177 -26 177 76 0 22 -10 41 -34 65 -35 35 -68 42 -111 25z"/>
<path d="M2634 4721 c-89 -54 -47 -191 58 -191 99 0 139 139 55 190 -40 25
-73 25 -113 1z"/>
<path d="M6789 4701 c-40 -41 -41 -98 0 -143 54 -61 149 -37 172 43 11 35 10
45 -5 74 -34 62 -117 75 -167 26z"/>
<path d="M10049 4691 c-55 -56 -26 -159 50 -176 61 -13 131 43 131 105 0 87
-118 133 -181 71z"/>
<path d="M1348 4694 c-65 -35 -73 -121 -17 -168 70 -59 169 -14 169 76 -1 85
-78 133 -152 92z"/>
<path d="M6523 4676 c-52 -23 -77 -90 -52 -139 19 -38 51 -57 97 -57 35 0 49
6 73 29 80 81 -14 213 -118 167z m77 -116 c0 -5 -5 -10 -11 -10 -5 0 -7 5 -4
10 3 6 8 10 11 10 2 0 4 -4 4 -10z"/>
<path d="M6206 4649 c-28 -22 -45 -70 -38 -106 6 -31 48 -70 82 -78 67 -15
137 56 124 124 -14 71 -110 105 -168 60z"/>
<path d="M8689 4641 c-79 -79 11 -210 114 -167 37 15 67 59 67 96 0 29 -27 77
-49 90 -11 5 -38 10 -61 10 -33 0 -48 -6 -71 -29z m66 -101 c-3 -5 -13 -10
-21 -10 -8 0 -14 5 -14 10 0 6 9 10 21 10 11 0 17 -4 14 -10z"/>
<path d="M9602 4655 c-97 -42 -60 -195 47 -195 114 0 146 162 39 199 -39 14
-46 13 -86 -4z"/>
<path d="M5888 4633 c-36 -38 -43 -72 -24 -117 29 -70 122 -83 171 -24 58 69
13 168 -77 168 -35 0 -50 -6 -70 -27z"/>
<path d="M8194 4616 c-26 -26 -34 -42 -34 -71 0 -52 53 -105 105 -105 52 0
105 53 105 105 0 52 -53 105 -105 105 -29 0 -45 -8 -71 -34z"/>
<path d="M1063 4605 c-32 -32 -35 -40 -30 -77 8 -60 45 -93 103 -93 39 0 50 5
75 33 63 71 16 172 -82 172 -22 0 -41 -10 -66 -35z"/>
<path d="M7449 4611 c-81 -81 18 -219 120 -167 17 9 38 30 47 47 52 102 -86
201 -167 120z"/>
<path d="M2913 4595 c-32 -32 -35 -39 -30 -78 15 -107 143 -132 192 -37 24 46
19 78 -19 116 -48 48 -95 47 -143 -1z"/>
<path d="M1597 4599 c-42 -25 -60 -106 -31 -147 37 -54 105 -63 158 -21 47 37
43 129 -8 164 -23 17 -93 19 -119 4z"/>
<path d="M1886 4595 c-42 -22 -55 -44 -56 -93 0 -90 99 -135 168 -77 39 32 48
72 28 119 -11 26 -26 41 -50 51 -44 19 -54 19 -90 0z"/>
<path d="M7980 4583 c-58 -23 -85 -94 -55 -149 21 -39 58 -57 111 -52 76 6
111 108 57 168 -28 31 -81 46 -113 33z"/>
<path d="M2188 4565 c-65 -36 -73 -122 -17 -169 69 -58 169 -15 169 73 0 79
-86 133 -152 96z"/>
<path d="M8474 4561 c-32 -14 -64 -60 -64 -93 0 -83 78 -131 155 -96 32 14 55
56 55 97 0 64 -86 117 -146 92z"/>
<path d="M9118 4553 c-14 -9 -31 -27 -37 -40 -49 -108 74 -202 161 -124 28 25
33 36 33 75 0 36 -6 51 -26 72 -33 33 -94 41 -131 17z"/>
<path d="M9839 4541 c-39 -39 -40 -96 -4 -139 32 -39 72 -48 119 -28 71 29 84
121 24 171 -43 36 -100 35 -139 -4z"/>
<path d="M10440 4563 c-58 -23 -85 -94 -55 -148 52 -98 195 -58 195 54 0 60
-84 117 -140 94z"/>
<path d="M2442 4515 c-60 -50 -47 -142 24 -171 45 -19 79 -12 117 24 21 20 27
35 27 70 0 90 -99 135 -168 77z"/>
<path d="M10844 4525 c-65 -33 -78 -120 -25 -167 56 -50 138 -32 166 36 17 41
9 78 -24 110 -35 33 -77 41 -117 21z"/>
<path d="M8881 4474 c-64 -45 -58 -143 11 -177 74 -36 148 9 148 90 0 36 -6
50 -29 74 -34 34 -92 40 -130 13z"/>
<path d="M9379 4457 c-57 -38 -64 -113 -14 -163 18 -18 35 -24 70 -24 74 0
119 61 98 133 -10 35 -63 77 -98 77 -12 0 -37 -10 -56 -23z"/>
<path d="M2734 4451 c-89 -54 -47 -191 58 -191 99 0 139 139 55 190 -40 25
-73 25 -113 1z"/>
<path d="M6694 4452 c-52 -41 -58 -106 -16 -152 38 -42 86 -49 132 -18 87 59
50 188 -54 188 -24 0 -50 -8 -62 -18z"/>
<path d="M10149 4441 c-39 -39 -40 -96 -4 -139 32 -39 72 -48 119 -28 71 29
84 121 24 171 -43 36 -100 35 -139 -4z"/>
<path d="M1355 4446 c-47 -21 -68 -50 -68 -97 0 -57 44 -101 102 -103 91 -2
140 111 75 174 -36 34 -70 43 -109 26z"/>
<path d="M11389 4401 c-80 -81 11 -215 114 -166 101 48 68 195 -44 195 -31 0
-47 -7 -70 -29z"/>
<path d="M8056 4349 c-73 -87 14 -209 118 -165 71 29 84 121 24 171 -45 38
-108 35 -142 -6z"/>
<path d="M9653 4368 c-11 -5 -29 -25 -39 -43 -39 -72 25 -164 106 -151 45 7
90 55 90 97 0 37 -24 85 -49 99 -25 13 -79 12 -108 -2z"/>
<path d="M1083 4358 c-33 -16 -57 -69 -49 -110 10 -52 48 -83 103 -83 38 0 49
5 74 33 78 88 -20 212 -128 160z"/>
<path d="M5647 4359 c-45 -26 -60 -109 -27 -151 47 -60 133 -57 171 6 31 50
22 101 -25 138 -23 19 -91 23 -119 7z"/>
<path d="M7594 4351 c-88 -54 -47 -191 56 -191 102 0 143 138 57 190 -40 25
-73 25 -113 1z"/>
<path d="M8605 4348 c-53 -47 -49 -134 8 -168 78 -48 157 1 157 96 0 80 -104
125 -165 72z"/>
<path d="M8344 4346 c-104 -45 -76 -196 36 -196 23 0 50 5 61 10 22 13 49 61
49 90 0 37 -30 81 -65 96 -41 17 -42 17 -81 0z"/>
<path d="M1780 4339 c-59 -24 -84 -82 -60 -140 17 -40 46 -59 93 -59 49 0 73
13 92 50 32 61 11 120 -51 146 -38 16 -40 16 -74 3z"/>
<path d="M2030 4318 c-47 -32 -61 -85 -36 -132 34 -63 117 -76 167 -27 87 87
-29 228 -131 159z"/>
<path d="M7057 4299 c-23 -14 -47 -62 -47 -97 0 -56 70 -112 123 -98 90 22
116 142 41 191 -26 17 -90 20 -117 4z"/>
<path d="M9932 4295 c-39 -17 -66 -72 -57 -115 17 -80 118 -109 176 -51 80 81
-14 212 -119 166z"/>
<path d="M2335 4289 c-35 -20 -55 -53 -55 -92 0 -70 55 -116 123 -103 82 15
110 124 47 181 -23 21 -89 29 -115 14z"/>
<path d="M9150 4278 c-86 -58 -50 -188 52 -188 50 0 74 13 93 50 23 45 19 85
-12 120 -39 42 -87 49 -133 18z"/>
<path d="M1530 4273 c-8 -3 -27 -17 -42 -31 -40 -37 -40 -102 1 -143 81 -80
214 13 165 116 -22 46 -81 74 -124 58z"/>
<path d="M10454 4266 c-42 -19 -64 -52 -64 -99 0 -86 112 -132 173 -71 55 54
40 141 -28 170 -41 17 -42 17 -81 0z"/>
<path d="M7343 4250 c-37 -22 -54 -69 -42 -115 31 -113 199 -92 199 25 0 52
-13 76 -50 95 -39 20 -69 19 -107 -5z"/>
<path d="M2634 4235 c-69 -29 -87 -114 -35 -166 40 -40 106 -41 144 -3 82 82
-3 215 -109 169z"/>
<path d="M8858 4220 c-52 -41 -59 -100 -18 -153 39 -49 130 -45 165 9 17 27
20 86 5 115 -25 47 -109 63 -152 29z"/>
<path d="M9452 4195 c-39 -17 -66 -73 -57 -116 17 -76 120 -105 176 -50 82 82
-12 214 -119 166z"/>
<path d="M10165 4177 c-20 -16 -28 -35 -32 -68 -4 -38 -1 -50 21 -76 33 -39
73 -49 120 -29 43 18 71 71 61 117 -16 71 -115 104 -170 56z"/>
<path d="M1283 4153 c-35 -7 -73 -59 -73 -102 0 -45 22 -79 64 -96 42 -18 78
-9 112 26 70 74 0 190 -103 172z"/>
<path d="M8099 4101 c-55 -56 -26 -159 50 -176 42 -9 96 17 116 55 53 103 -84
202 -166 121z"/>
<path d="M8609 4081 c-79 -79 11 -210 114 -167 108 45 76 195 -41 196 -35 0
-49 -6 -73 -29z"/>
<path d="M8366 4071 c-46 -48 -36 -132 21 -162 71 -38 153 11 153 92 0 90
-112 135 -174 70z"/>
<path d="M9708 4071 c-28 -25 -33 -36 -33 -76 0 -40 5 -51 33 -76 51 -45 122
-36 155 21 63 105 -64 212 -155 131z"/>
<path d="M1673 4065 c-34 -14 -63 -59 -63 -97 0 -13 9 -37 20 -55 51 -84 190
-44 190 55 0 47 -23 80 -66 98 -40 17 -41 17 -81 -1z"/>
<path d="M7575 4071 c-39 -16 -60 -51 -60 -98 0 -38 5 -49 33 -74 87 -78 210
17 161 124 -21 45 -84 68 -134 48z"/>
<path d="M7818 4064 c-65 -35 -73 -121 -16 -169 27 -23 39 -26 77 -22 60 7 91
41 91 100 -1 84 -79 131 -152 91z"/>
<path d="M2184 4061 c-32 -14 -64 -60 -64 -93 0 -64 45 -108 111 -108 46 0 99
56 99 104 0 69 -83 124 -146 97z"/>
<path d="M1904 4016 c-47 -47 -47 -95 0 -142 26 -26 42 -34 71 -34 52 0 105
53 105 105 0 52 -53 105 -105 105 -29 0 -45 -8 -71 -34z"/>
<path d="M9023 4030 c-62 -37 -61 -134 1 -176 33 -21 100 -14 128 13 46 47 39
131 -15 163 -40 25 -73 25 -114 0z"/>
<path d="M5845 4017 c-20 -16 -28 -35 -32 -68 -5 -41 -2 -50 27 -83 l33 -37
-26 -27 c-73 -76 -16 -188 91 -180 39 3 38 5 41 -60 1 -13 15 -37 31 -54 31
-31 45 -32 135 -16 15 2 20 -4 26 -35 13 -78 93 -118 157 -77 62 38 67 117 10
165 -26 22 -39 26 -72 23 -23 -3 -49 -8 -58 -12 -12 -6 -18 -4 -18 5 0 78 -54
132 -125 127 l-40 -3 -5 47 c-4 33 -14 56 -33 76 l-27 29 20 18 c11 10 25 35
31 55 29 97 -90 173 -166 107z"/>
<path d="M6103 4024 c-17 -9 -39 -31 -48 -50 -48 -101 86 -194 166 -115 82 82
-15 217 -118 165z"/>
<path d="M10562 4015 c-38 -32 -48 -72 -28 -118 45 -108 195 -76 196 41 0 90
-99 135 -168 77z"/>
<path d="M2441 3994 c-38 -32 -49 -80 -27 -123 17 -33 62 -61 96 -61 31 0 76
29 89 57 49 107 -69 202 -158 127z"/>
<path d="M9263 4000 c-87 -53 -45 -190 59 -190 99 0 139 139 55 190 -40 25
-73 25 -114 0z"/>
<path d="M9994 4010 c-36 -14 -64 -59 -64 -102 0 -87 101 -130 169 -72 89 75
3 218 -105 174z"/>
<path d="M7334 3941 c-89 -54 -47 -191 58 -191 21 0 38 -2 38 -4 0 -3 -10 -21
-21 -41 -39 -65 -12 -134 62 -156 32 -10 42 -9 71 7 18 11 40 34 48 52 16 35
31 40 50 18 6 -8 27 -20 45 -26 63 -21 135 33 135 100 0 29 -27 77 -49 90 -28
15 -93 12 -117 -5 -12 -8 -27 -28 -34 -45 -15 -35 -23 -37 -57 -10 -16 12 -41
20 -64 20 -43 0 -47 8 -23 45 19 29 21 83 5 114 -14 25 -61 51 -93 51 -13 0
-37 -9 -54 -19z"/>
<path d="M10279 3931 c-39 -39 -40 -96 -4 -139 50 -60 142 -47 171 24 20 47
11 87 -28 119 -43 36 -100 35 -139 -4z"/>
<path d="M8823 3933 c-12 -2 -33 -16 -47 -30 -63 -63 -17 -173 72 -173 46 0
80 22 97 64 17 41 9 78 -23 109 -29 27 -63 38 -99 30z"/>
<path d="M5624 3916 c-104 -45 -76 -196 36 -196 23 0 50 5 61 10 22 13 49 61
49 90 0 37 -30 81 -65 96 -41 17 -42 17 -81 0z"/>
<path d="M9538 3914 c-36 -19 -48 -43 -48 -94 0 -118 163 -138 200 -26 29 89
-69 166 -152 120z"/>
<path d="M1448 3904 c-35 -18 -48 -43 -48 -89 0 -68 56 -114 123 -101 60 11
96 74 77 132 -22 66 -90 92 -152 58z"/>
<path d="M8021 3896 c-49 -27 -67 -110 -33 -152 42 -52 106 -58 154 -15 28 25
33 36 33 76 0 40 -5 51 -33 76 -36 32 -80 38 -121 15z"/>
<path d="M6282 3845 c-39 -17 -66 -73 -57 -116 9 -42 58 -79 105 -79 56 0 91
33 97 91 5 41 2 50 -23 78 -34 37 -77 46 -122 26z"/>
<path d="M8270 3832 c-47 -23 -66 -77 -46 -126 44 -105 196 -79 196 34 0 50
-22 85 -62 99 -41 14 -47 14 -88 -7z"/>
<path d="M8524 3836 c-44 -19 -69 -76 -54 -121 15 -46 54 -75 99 -75 114 0
146 162 39 199 -39 14 -46 13 -84 -3z"/>
<path d="M6763 3825 c-41 -17 -67 -67 -59 -110 16 -83 117 -115 177 -56 80 80
-14 212 -118 166z"/>
<path d="M1764 3810 c-40 -16 -66 -61 -62 -105 3 -22 6 -47 9 -55 3 -12 -4
-14 -36 -12 -107 7 -160 -116 -80 -185 67 -59 169 -6 167 87 0 3 -3 20 -7 38
l-7 32 47 0 c40 0 52 5 81 34 51 51 43 119 -18 156 -35 21 -60 24 -94 10z"/>
<path d="M7060 3788 c-85 -58 -51 -188 50 -188 52 0 76 13 95 50 23 45 19 85
-12 120 -39 42 -87 49 -133 18z"/>
<path d="M9054 3780 c-66 -27 -85 -120 -35 -171 56 -55 159 -26 176 50 10 45
-18 99 -59 116 -40 17 -52 17 -82 5z"/>
<path d="M10571 3776 c-30 -16 -50 -52 -51 -89 -1 -93 102 -140 172 -78 28 25
33 36 33 76 0 40 -5 51 -33 76 -36 32 -80 38 -121 15z"/>
<path d="M9802 3765 c-39 -17 -66 -72 -57 -116 10 -43 58 -79 107 -79 112 0
138 160 31 201 -32 12 -41 11 -81 -6z"/>
<path d="M10048 3741 c-28 -25 -33 -36 -33 -75 0 -64 37 -101 101 -101 39 0
50 5 75 33 41 46 40 99 -2 141 -42 42 -95 43 -141 2z"/>
<path d="M9304 3745 c-47 -32 -56 -122 -16 -158 51 -46 129 -39 162 16 11 18
20 42 20 55 0 31 -26 79 -49 92 -28 15 -93 12 -117 -5z"/>
<path d="M6464 3706 c-52 -52 -39 -127 27 -162 102 -52 201 86 120 167 -43 43
-101 41 -147 -5z"/>
<path d="M5450 3677 c-14 -7 -33 -29 -43 -50 -45 -92 50 -180 143 -132 37 19
50 43 50 90 0 47 -13 71 -50 90 -35 18 -67 19 -100 2z"/>
<path d="M8725 3657 c-28 -28 -35 -43 -35 -73 1 -92 103 -137 172 -75 28 25
33 36 33 75 0 58 -33 95 -93 103 -37 5 -45 2 -77 -30z m12 -74 c-3 -10 -5 -2
-5 17 0 19 2 27 5 18 2 -10 2 -26 0 -35z m110 0 c-3 -10 -5 -2 -5 17 0 19 2
27 5 18 2 -10 2 -26 0 -35z"/>
<path d="M10328 3665 c-65 -36 -73 -122 -17 -169 69 -58 169 -15 169 73 0 79
-86 133 -152 96z"/>
<path d="M9539 3631 c-38 -39 -40 -96 -4 -139 30 -36 66 -47 110 -32 56 18 83
81 61 135 -30 70 -114 88 -167 36z"/>
<path d="M5701 3614 c-58 -48 -47 -135 20 -170 69 -35 149 18 149 98 0 87
-100 130 -169 72z"/>
<path d="M6934 3611 c-12 -5 -31 -22 -43 -37 -52 -66 -5 -164 79 -164 35 0 48
6 77 35 32 32 35 40 30 77 -3 24 -15 51 -29 65 -27 26 -81 38 -114 24z"/>
<path d="M6674 3550 c-32 -13 -64 -59 -64 -92 0 -112 143 -150 196 -52 45 83
-44 180 -132 144z"/>
<path d="M7801 3534 c-60 -50 -46 -140 26 -170 72 -31 143 15 143 93 0 92 -98
137 -169 77z"/>
<path d="M8941 3534 c-30 -21 -51 -71 -44 -106 7 -36 47 -75 84 -83 16 -4 29
-8 29 -11 0 -2 -9 -18 -20 -36 -31 -51 -26 -94 14 -134 19 -19 41 -34 50 -34
23 0 20 -10 -14 -39 -58 -49 -56 -135 3 -171 41 -25 73 -25 114 0 37 22 54 69
42 115 -9 33 -51 75 -75 75 -23 0 -17 15 21 53 48 48 49 95 1 143 -19 19 -43
34 -53 34 -31 0 -34 11 -13 40 50 70 5 170 -77 170 -21 0 -49 -7 -62 -16z"/>
<path d="M7603 3523 c-37 -7 -73 -59 -73 -105 0 -123 183 -135 206 -13 8 45
-18 93 -61 111 -19 8 -38 13 -42 13 -4 -1 -18 -4 -30 -6z"/>
<path d="M9219 3515 c-63 -34 -62 -130 1 -173 46 -31 94 -25 133 18 79 89 -28
213 -134 155z"/>
<path d="M7173 3500 c-13 -5 -32 -24 -43 -42 -28 -45 -21 -94 20 -130 67 -61
170 -15 170 77 0 78 -73 125 -147 95z"/>
<path d="M10053 3481 c-45 -28 -62 -90 -36 -134 49 -83 163 -73 193 17 12 38
-3 89 -33 114 -28 24 -89 25 -124 3z"/>
<path d="M5279 3451 c-52 -53 -39 -135 28 -166 42 -20 83 -13 116 21 31 31 39
70 22 110 -29 69 -114 87 -166 35z"/>
<path d="M8047 3460 c-92 -73 -18 -215 94 -181 82 25 98 135 28 185 -32 22
-91 20 -122 -4z"/>
<path d="M9817 3440 c-98 -77 -6 -230 107 -178 55 24 77 95 46 146 -33 54
-106 69 -153 32z"/>
<path d="M1784 3421 c-36 -15 -64 -60 -64 -102 0 -29 7 -45 31 -68 42 -42 95
-43 141 -2 65 58 33 165 -53 176 -18 3 -44 1 -55 -4z"/>
<path d="M5583 3423 c-37 -7 -73 -59 -73 -105 0 -30 7 -46 29 -69 77 -76 199
-1 170 105 -14 52 -68 81 -126 69z"/>
<path d="M5884 3420 c-74 -29 -72 -151 3 -189 77 -40 170 41 143 125 -21 62
-84 89 -146 64z"/>
<path d="M6401 3404 c-58 -48 -47 -135 20 -170 69 -35 149 18 149 98 0 87
-100 130 -169 72z"/>
<path d="M6870 3373 c-75 -27 -91 -143 -26 -188 29 -21 85 -19 122 4 57 35 54
128 -6 169 -32 21 -59 26 -90 15z"/>
<path d="M6142 3290 c-61 -38 -69 -105 -18 -156 28 -28 42 -34 76 -34 34 0 47
6 71 31 82 88 -27 223 -129 159z"/>
<path d="M7739 3281 c-65 -65 -18 -181 73 -181 39 0 85 35 98 75 34 102 -95
182 -171 106z"/>
<path d="M6624 3260 c-34 -13 -64 -59 -64 -97 0 -47 54 -103 99 -103 66 0 111
44 111 111 0 22 -10 41 -34 65 -35 35 -68 42 -112 24z"/>
<path d="M7047 3240 c-29 -25 -37 -39 -37 -67 0 -100 100 -149 172 -84 28 25
33 36 33 75 0 58 -33 95 -92 103 -35 4 -45 1 -76 -27z"/>
<path d="M10823 3245 c-56 -24 -79 -97 -46 -145 27 -40 45 -49 91 -50 115 -1
143 151 36 196 -40 17 -41 17 -81 -1z"/>
<path d="M7294 3206 c-26 -26 -34 -42 -34 -71 0 -52 53 -105 105 -105 52 0
105 53 105 105 0 52 -53 105 -105 105 -29 0 -45 -8 -71 -34z"/>
<path d="M2194 3192 c-52 -42 -58 -106 -15 -154 25 -28 36 -33 75 -33 58 0 95
33 103 93 5 37 2 45 -30 77 -28 28 -43 35 -73 35 -22 0 -49 -8 -60 -18z"/>
<path d="M10142 3195 c-39 -17 -65 -69 -56 -115 16 -77 119 -107 175 -51 82
82 -12 214 -119 166z"/>
<path d="M5304 3182 c-65 -52 -53 -147 23 -178 46 -20 86 -10 118 28 58 69 13
168 -77 168 -26 0 -52 -7 -64 -18z"/>
<path d="M5622 3172 c-27 -25 -32 -37 -32 -74 0 -51 18 -80 59 -98 83 -34 168
42 141 125 -15 45 -42 67 -92 72 -38 4 -48 1 -76 -25z"/>
<path d="M5908 3131 c-27 -24 -33 -36 -32 -68 2 -54 19 -82 61 -99 46 -20 86
-10 118 28 85 100 -49 227 -147 139z"/>
<path d="M6328 3101 c-28 -25 -33 -36 -33 -75 0 -64 37 -101 101 -101 39 0 50
5 75 33 89 99 -44 232 -143 143z"/>
<path d="M6874 3083 c-12 -2 -34 -17 -49 -33 -21 -22 -28 -39 -28 -70 0 -92
104 -134 174 -72 77 69 7 194 -97 175z"/>
<path d="M7170 3019 c-39 -16 -59 -39 -66 -76 -13 -67 33 -123 101 -123 47 0
71 14 90 50 30 59 13 115 -45 145 -33 17 -45 18 -80 4z"/>
<path d="M6559 2981 c-55 -56 -26 -159 50 -176 82 -18 157 75 120 148 -19 38
-51 57 -97 57 -35 0 -49 -6 -73 -29z"/>
<path d="M7463 2998 c-11 -5 -29 -25 -39 -43 -39 -72 25 -164 106 -151 45 7
90 55 90 97 0 37 -24 85 -49 99 -25 13 -79 12 -108 -2z"/>
<path d="M5477 2950 c-71 -56 -46 -170 40 -186 40 -7 88 10 108 40 17 24 20
89 5 117 -26 47 -110 63 -153 29z"/>
<path d="M2791 2944 c-29 -21 -52 -74 -44 -105 8 -34 51 -77 84 -84 66 -15
136 56 123 124 -14 67 -106 104 -163 65z"/>
<path d="M5785 2951 c-33 -14 -56 -47 -62 -90 -5 -36 -2 -44 30 -76 71 -71
177 -26 177 76 0 22 -10 41 -34 65 -35 35 -68 42 -111 25z"/>
<path d="M6114 2941 c-89 -54 -47 -191 58 -191 99 0 139 139 55 190 -40 25
-73 25 -113 1z"/>
<path d="M7719 2881 c-53 -53 -33 -140 40 -171 82 -33 170 64 130 143 -19 38
-51 57 -97 57 -35 0 -49 -6 -73 -29z"/>
<path d="M3022 2845 c-58 -49 -46 -142 24 -171 44 -19 84 -11 117 22 92 92
-41 233 -141 149z"/>
<path d="M3304 2840 c-36 -14 -64 -59 -64 -102 0 -87 101 -130 169 -72 89 75
3 218 -105 174z"/>
<path d="M6984 2826 c-103 -45 -76 -196 36 -196 53 0 87 23 101 69 16 53 -8
107 -55 126 -42 18 -43 18 -82 1z"/>
<path d="M6365 2787 c-25 -25 -35 -44 -35 -66 0 -98 101 -145 172 -82 28 25
33 36 33 75 0 58 -33 95 -93 103 -37 5 -45 2 -77 -30z"/>
<path d="M6703 2786 c-52 -23 -77 -90 -52 -139 19 -38 51 -57 97 -57 35 0 49
6 73 29 80 81 -14 213 -118 167z"/>
<path d="M7283 2785 c-33 -14 -63 -59 -63 -95 0 -29 27 -77 49 -90 11 -5 38
-10 60 -10 55 0 90 32 98 87 7 52 -14 89 -62 109 -41 17 -42 17 -82 -1z"/>
<path d="M7509 2689 c-54 -58 -31 -144 46 -169 50 -16 104 11 123 62 28 74
-17 138 -95 138 -37 0 -50 -5 -74 -31z"/>
<path d="M2820 2699 c-59 -24 -84 -82 -60 -140 17 -40 46 -59 93 -59 49 0 73
13 92 50 32 61 11 120 -51 146 -38 16 -40 16 -74 3z"/>
<path d="M3574 2680 c-36 -14 -64 -59 -64 -102 0 -82 98 -129 163 -78 62 49
52 146 -17 175 -40 17 -52 17 -82 5z"/>
<path d="M10670 2663 c-58 -18 -94 -67 -88 -120 3 -26 0 -28 -41 -34 -58 -8
-101 -53 -101 -105 0 -51 53 -104 104 -104 55 0 98 44 105 106 l6 49 44 6 c58
8 91 44 91 99 0 63 -67 120 -120 103z"/>
<path d="M3179 2591 c-23 -23 -29 -38 -29 -71 0 -121 179 -139 205 -21 21 98
-104 163 -176 92z"/>
<path d="M7124 2575 c-103 -44 -76 -195 36 -195 52 0 86 22 100 66 29 87 -53
165 -136 129z"/>
<path d="M6884 2565 c-41 -17 -64 -51 -64 -95 0 -102 138 -143 190 -57 24 38
25 68 5 107 -25 48 -81 67 -131 45z"/>
<path d="M10049 2551 c-80 -81 11 -211 117 -166 41 17 69 72 59 114 -20 80
-118 109 -176 52z"/>
<path d="M6568 2523 c-14 -16 -28 -36 -31 -45 -8 -24 -24 -23 -32 2 -19 61
-113 80 -165 33 -63 -57 -42 -150 38 -174 50 -15 87 2 121 53 l24 37 37 -42
c32 -36 43 -42 78 -42 60 0 102 43 102 103 0 62 -40 102 -102 102 -35 0 -49
-6 -70 -27z"/>
<path d="M7334 2481 c-90 -55 -47 -191 59 -191 105 0 136 150 40 199 -32 16
-64 14 -99 -8z"/>
<path d="M2962 2475 c-39 -17 -66 -73 -57 -116 17 -76 120 -105 176 -50 82 82
-12 214 -119 166z"/>
<path d="M2656 2465 c-42 -22 -55 -44 -56 -93 0 -90 99 -135 168 -77 58 48 46
142 -22 170 -44 19 -54 19 -90 0z"/>
<path d="M3424 2431 c-36 -22 -58 -75 -48 -115 10 -41 59 -76 106 -76 106 0
138 150 41 199 -32 16 -64 14 -99 -8z"/>
<path d="M3682 2405 c-74 -62 -26 -185 72 -185 43 0 96 58 96 105 0 47 -13 71
-50 90 -43 22 -84 19 -118 -10z"/>
<path d="M3948 2351 c-26 -23 -33 -37 -33 -68 0 -104 114 -150 179 -72 83 99
-50 226 -146 140z"/>
<path d="M6774 2345 c-42 -17 -64 -51 -64 -96 0 -47 30 -85 81 -100 42 -13 47
-20 25 -39 -29 -23 -38 -75 -21 -115 8 -21 15 -40 15 -44 0 -3 -22 -6 -50 -6
-63 0 -99 -31 -107 -93 -5 -37 -2 -45 30 -77 90 -90 221 11 162 125 l-16 30
49 0 c56 0 89 20 108 66 27 65 -11 122 -98 148 -16 5 -15 9 7 42 29 42 31 73
10 114 -25 48 -81 67 -131 45z"/>
<path d="M3195 2317 c-68 -68 -37 -164 56 -174 41 -5 50 -2 80 25 29 26 34 37
34 76 0 58 -33 95 -93 103 -37 5 -45 2 -77 -30z"/>
<path d="M11679 2321 c-57 -58 -36 -149 40 -172 32 -9 44 -9 73 5 98 47 66
196 -42 196 -33 0 -48 -6 -71 -29z"/>
<path d="M7063 2294 c-40 -20 -65 -71 -57 -113 9 -44 56 -81 103 -81 111 0
145 147 46 195 -41 19 -52 19 -92 -1z"/>
<path d="M4234 2271 c-39 -24 -58 -73 -45 -118 5 -17 7 -33 5 -36 -2 -2 -26
-2 -52 1 -41 3 -52 0 -79 -22 -17 -15 -34 -39 -38 -55 -9 -41 17 -96 54 -116
17 -8 31 -18 31 -21 0 -4 -12 -20 -26 -37 -24 -28 -26 -37 -20 -88 l6 -58 -33
-6 c-40 -9 -84 -49 -92 -85 -16 -73 60 -143 130 -120 19 6 44 23 56 38 18 23
20 36 15 83 l-5 55 44 12 c53 14 80 49 80 105 0 35 -6 45 -45 78 l-44 38 28
30 c27 28 28 34 23 85 l-5 55 48 -6 c37 -4 56 -1 76 11 62 42 63 139 1 176
-40 25 -73 25 -113 1z"/>
<path d="M2763 2250 c-13 -5 -32 -24 -43 -42 -28 -45 -21 -94 20 -130 67 -61
169 -15 170 76 0 30 -7 45 -34 72 -35 35 -68 42 -113 24z m-6 -92 c-2 -13 -4
-5 -4 17 -1 22 1 32 4 23 2 -10 2 -28 0 -40z"/>
<path d="M6522 2235 c-39 -17 -66 -73 -57 -116 17 -76 120 -105 176 -50 81 81
-14 213 -119 166z"/>
<path d="M7284 2176 c-26 -26 -34 -42 -34 -71 0 -52 53 -105 105 -105 52 0
105 53 105 105 0 52 -53 105 -105 105 -29 0 -45 -8 -71 -34z"/>
<path d="M3014 2156 c-71 -71 -24 -176 77 -176 43 0 99 56 99 99 0 66 -44 111
-111 111 -22 0 -41 -10 -65 -34z"/>
<path d="M3537 2169 c-45 -27 -60 -109 -27 -152 56 -71 170 -46 186 40 7 40
-10 88 -40 108 -23 17 -93 19 -119 4z"/>
<path d="M3784 2136 c-69 -69 -23 -176 76 -176 47 0 100 55 100 105 0 29 -8
45 -34 71 -26 26 -42 34 -71 34 -29 0 -45 -8 -71 -34z"/>
<path d="M3283 2045 c-31 -31 -35 -40 -30 -71 17 -106 128 -139 184 -55 51 76
5 161 -88 161 -22 0 -41 -10 -66 -35z"/>
<path d="M2865 2018 c-36 -19 -55 -52 -55 -93 0 -90 100 -137 168 -80 77 64
34 186 -65 185 -15 0 -37 -6 -48 -12z"/>
<path d="M7044 1961 c-32 -14 -64 -60 -64 -93 0 -85 82 -133 159 -93 56 28 65
118 17 164 -26 25 -80 35 -112 22z"/>
<path d="M7305 1958 c-36 -19 -55 -52 -55 -93 0 -93 103 -138 172 -76 28 25
33 36 33 76 0 40 -5 51 -33 76 -34 31 -80 38 -117 17z"/>
<path d="M6448 1935 c-15 -8 -32 -24 -38 -35 -15 -27 -12 -92 5 -116 20 -30
68 -47 108 -40 82 15 110 124 47 181 -26 23 -89 29 -122 10z"/>
<path d="M3827 1909 c-21 -12 -47 -61 -47 -89 0 -67 72 -121 136 -100 114 38
91 201 -28 200 -24 0 -51 -5 -61 -11z"/>
<path d="M3573 1880 c-54 -32 -68 -83 -38 -140 19 -37 43 -50 93 -50 101 0
138 130 53 187 -41 28 -66 29 -108 3z"/>
<path d="M11305 1878 c-53 -47 -49 -134 8 -168 18 -11 42 -20 55 -20 69 0 123
72 102 136 -24 71 -111 98 -165 52z"/>
<path d="M3072 1855 c-38 -32 -48 -72 -28 -118 42 -102 181 -77 193 35 4 38 1
48 -25 76 -39 42 -95 45 -140 7z"/>
<path d="M3324 1782 c-66 -53 -57 -139 18 -178 85 -44 181 53 137 139 -19 37
-52 57 -94 57 -23 0 -49 -8 -61 -18z"/>
<path d="M11744 1761 c-90 -55 -47 -191 59 -191 55 0 97 43 97 100 0 52 -13
76 -50 95 -39 20 -69 19 -106 -4z"/>
<path d="M7720 1748 c-86 -58 -50 -188 52 -188 50 0 74 13 93 50 23 45 19 85
-12 120 -39 42 -87 49 -133 18z"/>
<path d="M11027 1744 c-54 -54 -39 -142 29 -170 47 -20 87 -11 119 28 59 70
13 168 -78 168 -34 0 -50 -6 -70 -26z"/>
<path d="M6535 1698 c-37 -20 -55 -52 -55 -96 0 -119 162 -142 200 -28 27 84
-69 166 -145 124z"/>
<path d="M6835 1691 c-39 -16 -60 -51 -60 -98 0 -38 5 -49 33 -74 87 -78 210
17 161 124 -21 45 -84 68 -134 48z"/>
<path d="M11481 1664 c-38 -32 -49 -80 -27 -123 17 -33 62 -61 96 -61 31 0 76
29 89 57 49 107 -69 202 -158 127z"/>
<path d="M7091 1664 c-65 -46 -57 -145 16 -179 43 -21 82 -13 115 23 33 35 40
68 24 107 -18 42 -52 65 -96 65 -20 0 -46 -7 -59 -16z"/>
<path d="M3760 1649 c-58 -24 -84 -82 -60 -139 42 -101 200 -70 200 39 0 73
-75 127 -140 100z"/>
<path d="M11274 1629 c-42 -12 -65 -40 -71 -88 -15 -109 131 -161 188 -67 24
40 24 73 -1 114 -11 17 -21 32 -22 32 -2 0 -17 4 -33 8 -17 5 -44 5 -61 1z"/>
<path d="M3129 1561 c-39 -39 -40 -96 -4 -139 50 -60 142 -47 171 24 20 47 11
87 -28 119 -43 36 -100 35 -139 -4z"/>
<path d="M10860 1573 c-59 -17 -97 -71 -85 -123 8 -36 48 -76 83 -83 35 -7 85
14 106 44 24 34 21 93 -6 124 -24 26 -72 45 -98 38z"/>
<path d="M3449 1541 c-64 -64 -18 -181 71 -181 37 0 81 30 96 67 43 103 -88
193 -167 114z"/>
<path d="M11893 1495 c-33 -14 -63 -59 -63 -95 0 -29 27 -77 49 -90 11 -5 38
-10 61 -10 113 0 139 152 34 196 -40 17 -41 17 -81 -1z"/>
<path d="M11632 1455 c-60 -50 -47 -142 24 -171 47 -20 87 -11 119 28 82 97
-46 225 -143 143z"/>
<path d="M6587 1444 c-75 -74 -10 -198 93 -178 77 16 107 119 51 175 -40 40
-106 41 -144 3z"/>
<path d="M11038 1441 c-28 -25 -33 -36 -33 -74 0 -34 6 -52 24 -71 47 -50 137
-42 166 15 57 109 -67 211 -157 130z"/>
<path d="M10620 1437 c-14 -7 -33 -29 -43 -50 -45 -92 50 -180 143 -132 37 19
50 43 50 90 0 47 -13 71 -50 90 -35 18 -67 19 -100 2z"/>
<path d="M6926 1399 c-28 -22 -45 -70 -38 -106 6 -31 48 -70 82 -78 68 -15
138 54 124 124 -14 71 -110 105 -168 60z"/>
<path d="M3689 1381 c-55 -55 -33 -150 40 -172 82 -24 157 48 131 127 -25 76
-116 100 -171 45z"/>
<path d="M11367 1384 c-54 -54 -39 -142 29 -170 47 -20 87 -11 119 28 59 70
13 168 -78 168 -34 0 -50 -6 -70 -26z"/>
<path d="M3114 1330 c-36 -14 -64 -59 -64 -102 0 -76 79 -121 154 -87 25 12
56 63 56 94 0 32 -32 77 -65 91 -39 16 -51 16 -81 4z"/>
<path d="M3364 1306 c-41 -18 -64 -52 -64 -96 0 -71 64 -118 134 -99 40 11 76
57 76 97 0 39 -29 83 -65 98 -41 17 -42 17 -81 0z"/>
<path d="M6708 1231 c-71 -57 -48 -171 39 -187 40 -7 88 10 108 40 23 32 19
100 -8 131 -32 38 -101 45 -139 16z"/>
<path d="M10874 1231 c-90 -55 -47 -191 59 -191 105 0 136 150 40 199 -32 16
-64 14 -99 -8z"/>
<path d="M11154 1235 c-72 -50 -46 -169 43 -191 53 -14 123 42 123 98 0 36
-24 84 -49 98 -28 15 -93 12 -117 -5z"/>
<path d="M11918 1221 c-87 -78 4 -216 112 -171 79 33 81 149 3 189 -38 20 -80
13 -115 -18z"/>
<path d="M11629 1191 c-85 -86 26 -225 129 -161 61 38 69 105 18 156 -46 46
-104 48 -147 5z"/>
<path d="M3578 1194 c-36 -19 -48 -43 -48 -94 0 -118 163 -138 200 -26 29 89
-69 166 -152 120z"/>
<path d="M10644 1141 c-32 -14 -64 -60 -64 -93 0 -62 48 -108 111 -108 46 0
99 56 99 104 0 69 -83 124 -146 97z"/>
<path d="M11377 1114 c-75 -74 -10 -198 93 -178 77 16 107 119 51 175 -40 40
-106 41 -144 3z"/>
<path d="M3134 1070 c-47 -19 -71 -100 -44 -151 13 -22 61 -49 90 -49 37 0 81
30 96 67 37 88 -51 170 -142 133z"/>
<path d="M11799 975 c-56 -30 -62 -119 -13 -166 19 -18 37 -24 71 -24 38 0 49
5 74 33 81 90 -24 216 -132 157z"/>
<path d="M3371 944 c-93 -78 4 -228 112 -173 36 19 57 52 57 92 0 49 -13 73
-50 92 -43 22 -84 19 -119 -11z"/>
<path d="M11564 911 c-32 -14 -64 -60 -64 -93 0 -61 45 -108 105 -108 92 0
138 116 71 179 -26 25 -80 35 -112 22z"/>
<path d="M3121 796 c-57 -31 -67 -107 -22 -158 25 -28 36 -33 76 -33 40 0 51
5 76 33 80 89 -25 216 -130 158z"/>
<path d="M11685 683 c-29 -7 -56 -33 -72 -70 -26 -63 25 -133 97 -133 20 0 46
7 59 16 30 21 51 71 44 106 -10 50 -76 93 -128 81z"/>
<path d="M3126 509 c-38 -30 -49 -63 -36 -108 13 -49 39 -71 89 -78 36 -5 44
-2 76 30 28 28 35 43 35 74 -1 85 -98 134 -164 82z"/>
<path d="M12644 311 c-32 -14 -64 -60 -64 -93 0 -113 142 -149 200 -51 27 47
25 64 -12 107 -35 39 -84 54 -124 37z"/>
<path d="M3154 211 c-34 -15 -54 -52 -54 -99 0 -36 5 -49 31 -73 46 -43 72
-46 119 -15 61 40 71 120 22 169 -22 21 -87 31 -118 18z"/>
</g>
</svg>
